<?xml version="1.0" encoding="utf-8"?>
<!-- Generator: Adobe Illustrator 28.0.0, SVG Export Plug-In . SVG Version: 6.00 Build 0)  -->
<svg version="1.1" id="Layer_1" xmlns="http://www.w3.org/2000/svg" xmlns:xlink="http://www.w3.org/1999/xlink" x="0px" y="0px"
	 width="800px" height="298.2px" viewBox="0 0 800 298.2" style="enable-background:new 0 0 800 298.2;" xml:space="preserve">
<style type="text/css">
	.st0{fill:url(#SVGID_1_);}
	.st1{fill:url(#SVGID_00000162344610363172517100000013072523962136665984_);}
</style>
<g>
	<linearGradient id="SVGID_1_" gradientUnits="userSpaceOnUse" x1="237.0229" y1="116.9121" x2="799.2917" y2="116.9121">
		<stop  offset="0" style="stop-color:#A600F2"/>
		<stop  offset="1" style="stop-color:#263E71"/>
	</linearGradient>
	<path class="st0" d="M799.3,189.6v40.5H660.1V0H705v189.6H799.3z M364.3,0v152.1c0,36.1-22.1,41.5-41.2,41.5
		c-19.1,0-41.2-5.4-41.2-41.5V0H237v161.7c0,50.4,41.2,72.2,86.1,72.2c44.9,0,86.1-21.8,86.1-72.2V0H364.3z M560.4,115.2L632.2,0
		h-51.4l-46.1,74L488.5,0h-51.4l72.7,113.9l-72.4,116.2h51.4l47-75.4l44.6,75.4h51.4L560.4,115.2z"/>
	<g>
		<path d="M28.5,258.8c0.2,0.2,0.3,0.5,0.3,0.8v24.2c0,2.6-0.7,5-2,7.2c-1.3,2.2-3.1,4-5.3,5.3c-2.2,1.3-4.6,2-7.2,2
			c-2.6,0-5-0.7-7.2-2c-2.2-1.3-4-3.1-5.3-5.3c-1.3-2.2-2-4.6-2-7.2v-24.2c0-0.3,0.1-0.6,0.3-0.8c0.2-0.2,0.5-0.3,0.8-0.3
			c0.3,0,0.6,0.1,0.8,0.3c0.2,0.2,0.3,0.5,0.3,0.8v24.2c0,2.2,0.5,4.2,1.6,6.1c1.1,1.9,2.5,3.4,4.4,4.5c1.8,1.1,3.9,1.7,6.1,1.7
			s4.2-0.6,6.1-1.7c1.8-1.1,3.3-2.6,4.4-4.5c1.1-1.9,1.7-3.9,1.7-6.1v-24.2c0-0.3,0.1-0.6,0.3-0.8c0.2-0.2,0.5-0.3,0.8-0.3
			C28,258.5,28.3,258.6,28.5,258.8z"/>
		<path d="M59.3,271.8c1.7,2,2.5,4.5,2.5,7.6v17.1c0,0.3-0.1,0.6-0.3,0.8c-0.2,0.2-0.5,0.3-0.8,0.3c-0.3,0-0.6-0.1-0.8-0.3
			s-0.3-0.5-0.3-0.8v-16.9c0-2.5-0.7-4.6-2-6.2c-1.3-1.6-3.3-2.4-6-2.4c-1.6,0-3.3,0.4-4.8,1.2c-1.6,0.8-2.9,1.8-3.9,3.2
			c-1,1.3-1.5,2.8-1.5,4.3v16.9c0,0.3-0.1,0.6-0.3,0.8c-0.2,0.2-0.5,0.3-0.8,0.3c-0.3,0-0.6-0.1-0.8-0.3s-0.3-0.5-0.3-0.8v-25.7
			c0-0.3,0.1-0.6,0.3-0.8c0.2-0.2,0.5-0.3,0.8-0.3c0.3,0,0.6,0.1,0.8,0.3c0.2,0.2,0.3,0.5,0.3,0.8v3.8c1.1-1.7,2.6-3.1,4.6-4.1
			c2-1.1,3.9-1.6,5.9-1.6C55.1,268.8,57.6,269.8,59.3,271.8z"/>
		<path d="M70.8,264.5c-0.4-0.3-0.5-0.8-0.5-1.3v-0.4c0-0.5,0.2-1,0.6-1.3c0.4-0.3,0.9-0.5,1.5-0.5c0.5,0,1,0.2,1.3,0.5
			c0.4,0.3,0.5,0.8,0.5,1.3v0.4c0,0.5-0.2,1-0.5,1.3c-0.4,0.3-0.8,0.5-1.4,0.5C71.6,265,71.1,264.8,70.8,264.5z M73,297.3
			c-0.2,0.2-0.5,0.3-0.8,0.3c-0.3,0-0.6-0.1-0.8-0.3c-0.2-0.2-0.3-0.5-0.3-0.8v-26.6c0-0.3,0.1-0.6,0.3-0.8c0.2-0.2,0.5-0.3,0.8-0.3
			c0.3,0,0.6,0.1,0.8,0.3c0.2,0.2,0.3,0.5,0.3,0.8v26.6C73.3,296.8,73.2,297.1,73,297.3z"/>
		<path d="M94.7,270.4c0.2,0.2,0.3,0.5,0.3,0.8c0,0.3-0.1,0.6-0.3,0.8c-0.2,0.2-0.5,0.3-0.8,0.3h-6.6v24.4c0,0.3-0.1,0.6-0.3,0.8
			c-0.2,0.2-0.5,0.3-0.8,0.3c-0.3,0-0.6-0.1-0.8-0.3c-0.2-0.2-0.3-0.5-0.3-0.8v-24.4h-4.5c-0.3,0-0.5-0.1-0.7-0.3
			c-0.2-0.2-0.3-0.5-0.3-0.7c0-0.3,0.1-0.6,0.3-0.8c0.2-0.2,0.5-0.3,0.8-0.3h4.5v-6.8c0-2.2,0.6-3.9,1.8-5c1.2-1.1,2.7-1.7,4.5-1.7
			c0.9,0,1.8,0.1,2.7,0.4s1.3,0.6,1.3,1.2c0,0.3-0.1,0.6-0.3,0.8c-0.2,0.2-0.5,0.3-0.7,0.3c-0.3,0-0.7-0.1-1.2-0.3
			c-0.9-0.3-1.5-0.4-1.9-0.4c-1.2,0-2.1,0.4-2.8,1.2c-0.7,0.8-1,2-1,3.5v6.8h6.6C94.2,270.1,94.5,270.2,94.7,270.4z M100.9,264.5
			c-0.4-0.3-0.5-0.8-0.5-1.3v-0.4c0-0.5,0.2-1,0.6-1.3c0.4-0.3,0.9-0.5,1.5-0.5c0.5,0,1,0.2,1.3,0.5c0.4,0.3,0.5,0.8,0.5,1.3v0.4
			c0,0.5-0.2,1-0.5,1.3c-0.4,0.3-0.8,0.5-1.4,0.5C101.7,265,101.3,264.8,100.9,264.5z M103.1,297.3c-0.2,0.2-0.5,0.3-0.8,0.3
			c-0.3,0-0.6-0.1-0.8-0.3c-0.2-0.2-0.3-0.5-0.3-0.8v-26.6c0-0.3,0.1-0.6,0.3-0.8c0.2-0.2,0.5-0.3,0.8-0.3c0.3,0,0.6,0.1,0.8,0.3
			c0.2,0.2,0.3,0.5,0.3,0.8v26.6C103.5,296.8,103.3,297.1,103.1,297.3z"/>
		<path d="M135.5,291.2c0.2,0.2,0.3,0.4,0.3,0.7c0,0.3-0.1,0.5-0.2,0.7c-1.2,1.6-2.8,3-4.6,4c-1.8,1-3.8,1.6-5.9,1.6
			c-2.8,0-5.3-0.6-7.4-1.8c-2.2-1.2-3.9-2.9-5.1-5.1c-1.2-2.2-1.8-4.8-1.8-7.7c0-3,0.6-5.6,1.8-7.9c1.2-2.3,2.7-4,4.7-5.2
			c1.9-1.2,4-1.8,6.2-1.8s4.2,0.5,6.1,1.4c1.9,1,3.4,2.4,4.6,4.3c1.2,1.9,1.8,4.3,1.9,7.1c0,0.3-0.1,0.6-0.3,0.8
			c-0.2,0.2-0.5,0.4-0.8,0.4h-22v0.7c0,2.3,0.5,4.4,1.4,6.4c0.9,1.9,2.3,3.4,4.1,4.6c1.8,1.1,4,1.7,6.6,1.7c1.8,0,3.5-0.4,5.1-1.3
			c1.6-0.9,2.8-2,3.7-3.3c0.3-0.3,0.6-0.5,1-0.5C135.1,290.9,135.3,291,135.5,291.2z M119.2,272.2c-1.4,0.7-2.7,1.8-3.8,3.2
			c-1.1,1.4-1.8,3.2-2.2,5.2h20.6v-0.5c-0.2-1.9-0.8-3.5-1.8-4.9c-1-1.4-2.3-2.4-3.8-3.1c-1.5-0.7-3.1-1.1-4.7-1.1
			C122.1,271.1,120.6,271.4,119.2,272.2z"/>
		<path d="M167.1,256.6c0.2,0.2,0.3,0.5,0.3,0.8v39.2c0,0.3-0.1,0.6-0.3,0.8s-0.5,0.3-0.8,0.3c-0.3,0-0.6-0.1-0.8-0.3
			s-0.3-0.5-0.3-0.8v-5.3c-0.9,2-2.3,3.6-4.3,5c-1.9,1.3-4.1,2-6.5,2c-2.4,0-4.6-0.6-6.6-1.9c-2-1.3-3.5-3.1-4.7-5.3
			c-1.1-2.2-1.7-4.7-1.7-7.5c0-2.8,0.6-5.3,1.7-7.5c1.1-2.2,2.7-4,4.7-5.3c2-1.3,4.2-1.9,6.6-1.9c2.3,0,4.5,0.7,6.4,2
			c2,1.3,3.4,3,4.3,5.1v-18.5c0-0.3,0.1-0.6,0.3-0.8c0.2-0.2,0.5-0.3,0.8-0.3C166.7,256.2,166.9,256.3,167.1,256.6z M160.2,294.5
			c1.6-1.1,2.9-2.6,3.9-4.5c0.9-1.9,1.4-4.1,1.4-6.5c0-2.4-0.5-4.5-1.4-6.4c-0.9-1.9-2.2-3.4-3.9-4.5c-1.7-1.1-3.5-1.6-5.6-1.6
			c-2,0-3.9,0.5-5.5,1.6c-1.7,1.1-3,2.6-3.9,4.5c-1,1.9-1.4,4.1-1.4,6.4c0,2.4,0.5,4.5,1.4,6.4c1,1.9,2.2,3.4,3.9,4.5
			c1.6,1.1,3.5,1.7,5.5,1.7C156.6,296.1,158.5,295.5,160.2,294.5z"/>
		<path d="M221.6,296.6c0,0.3-0.1,0.6-0.3,0.8c-0.2,0.2-0.5,0.3-0.8,0.3c-0.3,0-0.5-0.1-0.7-0.2c-0.2-0.1-0.3-0.3-0.4-0.5l-4.7-11.5
			l0.1,0.1h-18.8l-4.5,11.4c-0.2,0.5-0.5,0.7-1,0.7c-0.3,0-0.6-0.1-0.8-0.3c-0.2-0.2-0.3-0.4-0.4-0.7c0-0.1,0-0.3,0.1-0.6l15.1-37.1
			c0.1-0.3,0.3-0.5,0.4-0.6c0.2-0.1,0.4-0.1,0.6-0.1c0.6,0,0.9,0.2,1.1,0.7l15.1,37.1C221.5,296.2,221.6,296.4,221.6,296.6z
			 M196.8,283.3h17l-8.6-21.1L196.8,283.3z"/>
		<path d="M245,269.4c1.5,0.4,2.7,0.9,3.6,1.5c0.9,0.6,1.4,1.3,1.4,1.9c0,0.3-0.1,0.6-0.3,0.8c-0.2,0.2-0.5,0.3-0.8,0.3
			c-0.3,0-0.6-0.1-0.8-0.2c-0.2-0.1-0.4-0.3-0.7-0.6c-0.5-0.6-1-1-1.5-1.2c-1.3-0.6-3.2-1-5.7-1c-2.1,0-4.1,0.6-5.9,1.7
			c-1.8,1.1-3.2,2.6-4.3,4.6c-1.1,1.9-1.6,4-1.6,6.3c0,2.4,0.5,4.5,1.5,6.5c1,1.9,2.4,3.4,4.2,4.5c1.8,1.1,3.9,1.6,6.1,1.6
			c1.5,0,2.7-0.1,3.5-0.4c0.9-0.3,1.7-0.6,2.6-1.1c0.6-0.4,1.1-0.8,1.6-1.2c0.2-0.2,0.4-0.3,0.6-0.5c0.2-0.1,0.4-0.2,0.6-0.2
			c0.3,0,0.5,0.1,0.7,0.3c0.2,0.2,0.3,0.4,0.3,0.7c0,0.5-0.4,1.1-1.3,1.9c-0.9,0.7-2,1.4-3.6,1.9c-1.5,0.5-3.2,0.8-5.1,0.8
			c-2.7,0-5.1-0.6-7.2-1.9c-2.1-1.3-3.8-3-4.9-5.3c-1.2-2.2-1.8-4.8-1.8-7.6c0-2.6,0.6-5,1.8-7.3c1.2-2.2,2.8-4,5-5.4
			c2.1-1.3,4.6-2,7.4-2C241.9,268.8,243.5,269,245,269.4z"/>
		<path d="M273.7,269.4c1.5,0.4,2.7,0.9,3.6,1.5c0.9,0.6,1.4,1.3,1.4,1.9c0,0.3-0.1,0.6-0.3,0.8c-0.2,0.2-0.5,0.3-0.8,0.3
			c-0.3,0-0.6-0.1-0.8-0.2c-0.2-0.1-0.4-0.3-0.7-0.6c-0.5-0.6-1-1-1.5-1.2c-1.3-0.6-3.2-1-5.7-1c-2.1,0-4.1,0.6-5.9,1.7
			c-1.8,1.1-3.2,2.6-4.3,4.6c-1.1,1.9-1.6,4-1.6,6.3c0,2.4,0.5,4.5,1.5,6.5c1,1.9,2.4,3.4,4.2,4.5c1.8,1.1,3.9,1.6,6.1,1.6
			c1.5,0,2.7-0.1,3.5-0.4c0.9-0.3,1.7-0.6,2.6-1.1c0.6-0.4,1.1-0.8,1.6-1.2c0.2-0.2,0.4-0.3,0.6-0.5c0.2-0.1,0.4-0.2,0.6-0.2
			c0.3,0,0.5,0.1,0.7,0.3c0.2,0.2,0.3,0.4,0.3,0.7c0,0.5-0.4,1.1-1.3,1.9c-0.9,0.7-2,1.4-3.6,1.9c-1.5,0.5-3.2,0.8-5.1,0.8
			c-2.7,0-5.1-0.6-7.2-1.9c-2.1-1.3-3.8-3-4.9-5.3c-1.2-2.2-1.8-4.8-1.8-7.6c0-2.6,0.6-5,1.8-7.3c1.2-2.2,2.8-4,5-5.4s4.6-2,7.4-2
			C270.6,268.8,272.2,269,273.7,269.4z"/>
		<path d="M308.4,291.2c0.2,0.2,0.3,0.4,0.3,0.7c0,0.3-0.1,0.5-0.2,0.7c-1.2,1.6-2.8,3-4.6,4s-3.8,1.6-5.9,1.6
			c-2.8,0-5.3-0.6-7.4-1.8c-2.2-1.2-3.9-2.9-5.1-5.1c-1.2-2.2-1.8-4.8-1.8-7.7c0-3,0.6-5.6,1.8-7.9c1.2-2.3,2.7-4,4.7-5.2
			c1.9-1.2,4-1.8,6.2-1.8c2.2,0,4.2,0.5,6.1,1.4c1.9,1,3.4,2.4,4.6,4.3c1.2,1.9,1.8,4.3,1.9,7.1c0,0.3-0.1,0.6-0.3,0.8
			c-0.2,0.2-0.5,0.4-0.8,0.4h-22v0.7c0,2.3,0.5,4.4,1.4,6.4c0.9,1.9,2.3,3.4,4.1,4.6c1.8,1.1,4,1.7,6.6,1.7c1.8,0,3.5-0.4,5.1-1.3
			c1.6-0.9,2.8-2,3.7-3.3c0.3-0.3,0.6-0.5,1-0.5C308,290.9,308.2,291,308.4,291.2z M292.1,272.2c-1.4,0.7-2.7,1.8-3.8,3.2
			c-1.1,1.4-1.8,3.2-2.2,5.2h20.6v-0.5c-0.2-1.9-0.8-3.5-1.8-4.9c-1-1.4-2.3-2.4-3.8-3.1c-1.5-0.7-3.1-1.1-4.7-1.1
			C294.9,271.1,293.5,271.4,292.1,272.2z"/>
		<path d="M318.5,297.3c-0.2,0.2-0.5,0.3-0.8,0.3c-0.3,0-0.6-0.1-0.8-0.3c-0.2-0.2-0.3-0.5-0.3-0.8v-39.2c0-0.3,0.1-0.6,0.3-0.8
			c0.2-0.2,0.5-0.3,0.8-0.3c0.3,0,0.6,0.1,0.8,0.3c0.2,0.2,0.3,0.5,0.3,0.8v39.2C318.8,296.8,318.7,297.1,318.5,297.3z"/>
		<path d="M350.6,291.2c0.2,0.2,0.3,0.4,0.3,0.7c0,0.3-0.1,0.5-0.2,0.7c-1.2,1.6-2.8,3-4.6,4s-3.8,1.6-5.9,1.6
			c-2.8,0-5.3-0.6-7.4-1.8c-2.2-1.2-3.9-2.9-5.1-5.1c-1.2-2.2-1.8-4.8-1.8-7.7c0-3,0.6-5.6,1.8-7.9c1.2-2.3,2.7-4,4.7-5.2
			c1.9-1.2,4-1.8,6.2-1.8c2.2,0,4.2,0.5,6.1,1.4c1.9,1,3.4,2.4,4.6,4.3c1.2,1.9,1.8,4.3,1.9,7.1c0,0.3-0.1,0.6-0.3,0.8
			c-0.2,0.2-0.5,0.4-0.8,0.4h-22v0.7c0,2.3,0.5,4.4,1.4,6.4c0.9,1.9,2.3,3.4,4.1,4.6c1.8,1.1,4,1.7,6.6,1.7c1.8,0,3.5-0.4,5.1-1.3
			c1.6-0.9,2.8-2,3.7-3.3c0.3-0.3,0.6-0.5,1-0.5C350.2,290.9,350.4,291,350.6,291.2z M334.3,272.2c-1.4,0.7-2.7,1.8-3.8,3.2
			c-1.1,1.4-1.8,3.2-2.2,5.2h20.6v-0.5c-0.2-1.9-0.8-3.5-1.8-4.9c-1-1.4-2.3-2.4-3.8-3.1c-1.5-0.7-3.1-1.1-4.7-1.1
			C337.1,271.1,335.7,271.4,334.3,272.2z"/>
		<path d="M373.7,270.1c0,0.3-0.1,0.6-0.3,0.8c-0.2,0.2-0.4,0.3-0.7,0.3c-0.1,0-0.4-0.1-0.8-0.3c-0.4-0.2-0.9-0.3-1.4-0.3
			c-1.5,0-3.1,0.6-4.6,1.8c-1.5,1.2-2.8,2.7-3.8,4.6c-1,1.8-1.5,3.6-1.5,5.3v14c0,0.3-0.1,0.6-0.3,0.8c-0.2,0.2-0.5,0.3-0.8,0.3
			c-0.3,0-0.6-0.1-0.8-0.3s-0.3-0.5-0.3-0.8v-25.7c0-0.3,0.1-0.6,0.3-0.8c0.2-0.2,0.5-0.3,0.8-0.3c0.3,0,0.6,0.1,0.8,0.3
			c0.2,0.2,0.3,0.5,0.3,0.8v5.9c0.9-2.3,2.2-4.2,4-5.7c1.8-1.5,3.9-2.3,6.4-2.3C372.9,268.8,373.7,269.2,373.7,270.1z"/>
		<path d="M402.1,270.1c0.2,0.2,0.3,0.5,0.3,0.8v25.7c0,0.3-0.1,0.6-0.3,0.8c-0.2,0.2-0.5,0.3-0.8,0.3c-0.3,0-0.6-0.1-0.8-0.3
			s-0.3-0.5-0.3-0.8v-5c-0.9,1.9-2.4,3.5-4.3,4.8c-1.9,1.3-4.1,1.9-6.4,1.9c-2.5,0-4.7-0.6-6.7-1.9s-3.5-3.1-4.6-5.3
			c-1.1-2.3-1.7-4.8-1.7-7.6c0-2.8,0.6-5.3,1.7-7.5c1.1-2.2,2.7-4,4.7-5.2c2-1.2,4.2-1.9,6.6-1.9c2.4,0,4.6,0.6,6.5,1.9
			c1.9,1.3,3.3,3,4.2,5.1v-5c0-0.3,0.1-0.6,0.3-0.8c0.2-0.2,0.5-0.3,0.8-0.3C401.7,269.7,401.9,269.8,402.1,270.1z M395.1,294.4
			c1.7-1.1,3-2.6,3.9-4.6c0.9-1.9,1.4-4.1,1.4-6.5c0-2.3-0.5-4.4-1.4-6.3c-0.9-1.9-2.2-3.4-3.9-4.5c-1.7-1.1-3.5-1.7-5.6-1.7
			c-2.1,0-3.9,0.5-5.6,1.6c-1.7,1.1-3,2.5-3.9,4.4c-0.9,1.9-1.4,4-1.4,6.4c0,2.4,0.5,4.6,1.4,6.5c0.9,1.9,2.2,3.5,3.9,4.6
			c1.6,1.1,3.5,1.7,5.6,1.7C391.6,296.1,393.5,295.5,395.1,294.4z"/>
		<path d="M422.9,269.8c0.2,0.2,0.3,0.5,0.3,0.7c0,0.3-0.1,0.6-0.3,0.8c-0.2,0.2-0.5,0.3-0.8,0.3H416v19.9c0,1.6,0.3,2.7,0.9,3.3
			c0.6,0.5,1.3,0.8,2.2,0.8c0.1,0,0.4,0,0.6-0.1c0.3-0.1,0.5-0.1,0.7-0.1c0.3,0,0.5,0.1,0.7,0.3c0.2,0.2,0.3,0.4,0.3,0.7
			c0,0.3-0.2,0.6-0.7,0.9c-0.4,0.2-1,0.4-1.6,0.4c-0.9,0-1.7-0.1-2.4-0.2c-0.6-0.1-1.3-0.6-2-1.5c-0.7-0.9-1-2.3-1-4.3v-20h-4.6
			c-0.3,0-0.5-0.1-0.7-0.3c-0.2-0.2-0.3-0.5-0.3-0.7c0-0.3,0.1-0.6,0.3-0.8c0.2-0.2,0.5-0.3,0.8-0.3h4.6v-7.1c0-0.3,0.1-0.6,0.3-0.8
			c0.2-0.2,0.5-0.3,0.8-0.3c0.3,0,0.6,0.1,0.8,0.3c0.2,0.2,0.3,0.5,0.3,0.8v7.1h6.2C422.4,269.5,422.6,269.6,422.9,269.8z"/>
		<path d="M429.1,264.5c-0.4-0.3-0.5-0.8-0.5-1.3v-0.4c0-0.5,0.2-1,0.6-1.3c0.4-0.3,0.9-0.5,1.5-0.5c0.5,0,1,0.2,1.3,0.5
			c0.4,0.3,0.5,0.8,0.5,1.3v0.4c0,0.5-0.2,1-0.5,1.3c-0.4,0.3-0.8,0.5-1.4,0.5C429.9,265,429.5,264.8,429.1,264.5z M431.3,297.3
			c-0.2,0.2-0.5,0.3-0.8,0.3c-0.3,0-0.6-0.1-0.8-0.3s-0.3-0.5-0.3-0.8v-26.6c0-0.3,0.1-0.6,0.3-0.8c0.2-0.2,0.5-0.3,0.8-0.3
			c0.3,0,0.6,0.1,0.8,0.3c0.2,0.2,0.3,0.5,0.3,0.8v26.6C431.7,296.8,431.5,297.1,431.3,297.3z"/>
		<path d="M464.8,291c-1.2,2.2-2.8,4-5,5.3c-2.1,1.3-4.5,1.9-7,1.9c-2.6,0-4.9-0.6-7-1.9c-2.1-1.3-3.8-3.1-5-5.3
			c-1.2-2.2-1.8-4.7-1.8-7.4c0-2.8,0.6-5.3,1.8-7.5c1.2-2.2,2.9-4,5-5.3c2.1-1.3,4.4-1.9,7.1-1.9c2.6,0,4.9,0.6,7,1.9
			c2.1,1.3,3.8,3.1,5,5.3c1.2,2.2,1.8,4.7,1.8,7.5C466.6,286.3,466,288.8,464.8,291z M462.9,277.1c-1-1.9-2.4-3.4-4.1-4.5
			c-1.8-1.1-3.7-1.7-5.9-1.7c-2.2,0-4.1,0.6-5.9,1.7c-1.8,1.1-3.2,2.6-4.2,4.5c-1,1.9-1.5,4-1.5,6.4c0,2.4,0.5,4.5,1.5,6.4
			c1,1.9,2.4,3.4,4.2,4.5c1.8,1.1,3.7,1.7,5.9,1.7c2.2,0,4.2-0.5,5.9-1.6c1.8-1.1,3.1-2.6,4.1-4.5c1-1.9,1.5-4.1,1.5-6.4
			C464.3,281.2,463.9,279,462.9,277.1z"/>
		<path d="M494.1,271.8c1.7,2,2.5,4.5,2.5,7.6v17.1c0,0.3-0.1,0.6-0.3,0.8c-0.2,0.2-0.5,0.3-0.8,0.3c-0.3,0-0.6-0.1-0.8-0.3
			s-0.3-0.5-0.3-0.8v-16.9c0-2.5-0.7-4.6-2-6.2c-1.3-1.6-3.3-2.4-6-2.4c-1.6,0-3.3,0.4-4.8,1.2c-1.6,0.8-2.9,1.8-3.9,3.2
			c-1,1.3-1.5,2.8-1.5,4.3v16.9c0,0.3-0.1,0.6-0.3,0.8c-0.2,0.2-0.5,0.3-0.8,0.3c-0.3,0-0.6-0.1-0.8-0.3s-0.3-0.5-0.3-0.8v-25.7
			c0-0.3,0.1-0.6,0.3-0.8c0.2-0.2,0.5-0.3,0.8-0.3c0.3,0,0.6,0.1,0.8,0.3c0.2,0.2,0.3,0.5,0.3,0.8v3.8c1.1-1.7,2.6-3.1,4.6-4.1
			c2-1.1,3.9-1.6,5.9-1.6C490,268.8,492.5,269.8,494.1,271.8z"/>
		<path d="M545,258.8c0.2,0.2,0.3,0.5,0.3,0.8c0,0.3-0.1,0.6-0.3,0.8c-0.2,0.2-0.5,0.3-0.8,0.3h-20v15.4h17.5c0.3,0,0.6,0.1,0.8,0.3
			c0.2,0.2,0.3,0.5,0.3,0.8c0,0.3-0.1,0.6-0.3,0.8c-0.2,0.2-0.5,0.3-0.8,0.3h-17.5v18.1c0,0.3-0.1,0.6-0.3,0.8
			c-0.2,0.2-0.5,0.3-0.8,0.3c-0.3,0-0.6-0.1-0.8-0.3c-0.2-0.2-0.3-0.5-0.3-0.8v-36.9c0-0.3,0.1-0.6,0.3-0.8c0.2-0.2,0.5-0.3,0.8-0.3
			h21.1C544.5,258.5,544.8,258.6,545,258.8z"/>
		<path d="M575.8,291c-1.2,2.2-2.8,4-5,5.3c-2.1,1.3-4.5,1.9-7,1.9c-2.6,0-4.9-0.6-7-1.9c-2.1-1.3-3.8-3.1-5-5.3
			c-1.2-2.2-1.8-4.7-1.8-7.4c0-2.8,0.6-5.3,1.8-7.5c1.2-2.2,2.9-4,5-5.3c2.1-1.3,4.4-1.9,7.1-1.9c2.6,0,4.9,0.6,7,1.9
			c2.1,1.3,3.8,3.1,5,5.3c1.2,2.2,1.8,4.7,1.8,7.5C577.6,286.3,577,288.8,575.8,291z M573.9,277.1c-1-1.9-2.4-3.4-4.1-4.5
			c-1.8-1.1-3.7-1.7-5.9-1.7c-2.2,0-4.1,0.6-5.9,1.7c-1.8,1.1-3.2,2.6-4.2,4.5c-1,1.9-1.5,4-1.5,6.4c0,2.4,0.5,4.5,1.5,6.4
			s2.4,3.4,4.2,4.5c1.8,1.1,3.7,1.7,5.9,1.7c2.2,0,4.2-0.5,5.9-1.6c1.8-1.1,3.1-2.6,4.1-4.5c1-1.9,1.5-4.1,1.5-6.4
			C575.4,281.2,574.9,279,573.9,277.1z"/>
		<path d="M606.8,270.1c0.2,0.2,0.3,0.5,0.3,0.8v16.3c0,3.5-1,6.2-3,8.1c-2,1.8-4.7,2.8-8.1,2.8c-3.4,0-6.1-0.9-8.1-2.8
			c-2-1.8-3-4.5-3-8.1v-16.3c0-0.3,0.1-0.6,0.3-0.8c0.2-0.2,0.5-0.3,0.8-0.3c0.3,0,0.6,0.1,0.8,0.3c0.2,0.2,0.3,0.5,0.3,0.8v16.3
			c0,2.8,0.8,5,2.4,6.5c1.6,1.5,3.7,2.3,6.5,2.3c2.8,0,5-0.8,6.6-2.3c1.6-1.5,2.4-3.7,2.4-6.5v-16.3c0-0.3,0.1-0.6,0.3-0.8
			c0.2-0.2,0.5-0.3,0.8-0.3C606.4,269.7,606.6,269.8,606.8,270.1z"/>
		<path d="M636.7,271.8c1.7,2,2.5,4.5,2.5,7.6v17.1c0,0.3-0.1,0.6-0.3,0.8s-0.5,0.3-0.8,0.3c-0.3,0-0.6-0.1-0.8-0.3
			c-0.2-0.2-0.3-0.5-0.3-0.8v-16.9c0-2.5-0.7-4.6-2-6.2c-1.3-1.6-3.3-2.4-6-2.4c-1.6,0-3.3,0.4-4.8,1.2c-1.6,0.8-2.9,1.8-3.9,3.2
			c-1,1.3-1.5,2.8-1.5,4.3v16.9c0,0.3-0.1,0.6-0.3,0.8c-0.2,0.2-0.5,0.3-0.8,0.3c-0.3,0-0.6-0.1-0.8-0.3c-0.2-0.2-0.3-0.5-0.3-0.8
			v-25.7c0-0.3,0.1-0.6,0.3-0.8c0.2-0.2,0.5-0.3,0.8-0.3c0.3,0,0.6,0.1,0.8,0.3c0.2,0.2,0.3,0.5,0.3,0.8v3.8
			c1.1-1.7,2.6-3.1,4.6-4.1c2-1.1,3.9-1.6,5.9-1.6C632.5,268.8,635,269.8,636.7,271.8z"/>
		<path d="M672.2,256.6c0.2,0.2,0.3,0.5,0.3,0.8v39.2c0,0.3-0.1,0.6-0.3,0.8c-0.2,0.2-0.5,0.3-0.8,0.3c-0.3,0-0.6-0.1-0.8-0.3
			c-0.2-0.2-0.3-0.5-0.3-0.8v-5.3c-0.9,2-2.3,3.6-4.3,5c-1.9,1.3-4.1,2-6.5,2c-2.4,0-4.6-0.6-6.6-1.9c-2-1.3-3.5-3.1-4.7-5.3
			c-1.1-2.2-1.7-4.7-1.7-7.5c0-2.8,0.6-5.3,1.7-7.5c1.1-2.2,2.7-4,4.7-5.3c2-1.3,4.2-1.9,6.6-1.9c2.3,0,4.5,0.7,6.4,2
			c2,1.3,3.4,3,4.3,5.1v-18.5c0-0.3,0.1-0.6,0.3-0.8c0.2-0.2,0.5-0.3,0.8-0.3C671.7,256.2,672,256.3,672.2,256.6z M665.2,294.5
			c1.6-1.1,2.9-2.6,3.9-4.5c0.9-1.9,1.4-4.1,1.4-6.5c0-2.4-0.5-4.5-1.4-6.4c-0.9-1.9-2.2-3.4-3.9-4.5c-1.7-1.1-3.5-1.6-5.6-1.6
			c-2,0-3.9,0.5-5.5,1.6c-1.7,1.1-3,2.6-3.9,4.5c-1,1.9-1.4,4.1-1.4,6.4c0,2.4,0.5,4.5,1.4,6.4c1,1.9,2.2,3.4,3.9,4.5
			c1.6,1.1,3.5,1.7,5.5,1.7C661.7,296.1,663.6,295.5,665.2,294.5z"/>
		<path d="M705.5,270.1c0.2,0.2,0.3,0.5,0.3,0.8v25.7c0,0.3-0.1,0.6-0.3,0.8c-0.2,0.2-0.5,0.3-0.8,0.3c-0.3,0-0.6-0.1-0.8-0.3
			c-0.2-0.2-0.3-0.5-0.3-0.8v-5c-0.9,1.9-2.4,3.5-4.3,4.8c-1.9,1.3-4.1,1.9-6.4,1.9c-2.5,0-4.7-0.6-6.7-1.9c-2-1.3-3.5-3.1-4.6-5.3
			c-1.1-2.3-1.7-4.8-1.7-7.6c0-2.8,0.6-5.3,1.7-7.5c1.1-2.2,2.7-4,4.7-5.2c2-1.2,4.2-1.9,6.6-1.9c2.4,0,4.6,0.6,6.5,1.9
			c1.9,1.3,3.3,3,4.2,5.1v-5c0-0.3,0.1-0.6,0.3-0.8c0.2-0.2,0.5-0.3,0.8-0.3C705,269.7,705.3,269.8,705.5,270.1z M698.5,294.4
			c1.7-1.1,3-2.6,3.9-4.6c0.9-1.9,1.4-4.1,1.4-6.5c0-2.3-0.5-4.4-1.4-6.3c-0.9-1.9-2.2-3.4-3.9-4.5c-1.7-1.1-3.5-1.7-5.6-1.7
			s-3.9,0.5-5.6,1.6c-1.7,1.1-3,2.5-3.9,4.4c-0.9,1.9-1.4,4-1.4,6.4c0,2.4,0.5,4.6,1.4,6.5c0.9,1.9,2.2,3.5,3.9,4.6
			c1.6,1.1,3.5,1.7,5.6,1.7C695,296.1,696.8,295.5,698.5,294.4z"/>
		<path d="M726.2,269.8c0.2,0.2,0.3,0.5,0.3,0.7c0,0.3-0.1,0.6-0.3,0.8c-0.2,0.2-0.5,0.3-0.8,0.3h-6.2v19.9c0,1.6,0.3,2.7,0.9,3.3
			c0.6,0.5,1.3,0.8,2.2,0.8c0.1,0,0.4,0,0.6-0.1c0.3-0.1,0.5-0.1,0.7-0.1c0.3,0,0.5,0.1,0.7,0.3c0.2,0.2,0.3,0.4,0.3,0.7
			c0,0.3-0.2,0.6-0.7,0.9c-0.4,0.2-1,0.4-1.6,0.4c-0.9,0-1.7-0.1-2.4-0.2c-0.6-0.1-1.3-0.6-2-1.5c-0.7-0.9-1-2.3-1-4.3v-20h-4.6
			c-0.3,0-0.5-0.1-0.7-0.3c-0.2-0.2-0.3-0.5-0.3-0.7c0-0.3,0.1-0.6,0.3-0.8c0.2-0.2,0.5-0.3,0.8-0.3h4.6v-7.1c0-0.3,0.1-0.6,0.3-0.8
			c0.2-0.2,0.5-0.3,0.8-0.3c0.3,0,0.6,0.1,0.8,0.3c0.2,0.2,0.3,0.5,0.3,0.8v7.1h6.2C725.8,269.5,726,269.6,726.2,269.8z"/>
		<path d="M732.5,264.5c-0.4-0.3-0.5-0.8-0.5-1.3v-0.4c0-0.5,0.2-1,0.6-1.3c0.4-0.3,0.9-0.5,1.5-0.5c0.5,0,1,0.2,1.3,0.5
			c0.4,0.3,0.5,0.8,0.5,1.3v0.4c0,0.5-0.2,1-0.5,1.3c-0.4,0.3-0.8,0.5-1.4,0.5C733.3,265,732.8,264.8,732.5,264.5z M734.7,297.3
			c-0.2,0.2-0.5,0.3-0.8,0.3c-0.3,0-0.6-0.1-0.8-0.3c-0.2-0.2-0.3-0.5-0.3-0.8v-26.6c0-0.3,0.1-0.6,0.3-0.8c0.2-0.2,0.5-0.3,0.8-0.3
			c0.3,0,0.6,0.1,0.8,0.3c0.2,0.2,0.3,0.5,0.3,0.8v26.6C735,296.8,734.9,297.1,734.7,297.3z"/>
		<path d="M768.1,291c-1.2,2.2-2.8,4-5,5.3c-2.1,1.3-4.5,1.9-7,1.9c-2.6,0-4.9-0.6-7-1.9c-2.1-1.3-3.8-3.1-5-5.3
			c-1.2-2.2-1.8-4.7-1.8-7.4c0-2.8,0.6-5.3,1.8-7.5c1.2-2.2,2.9-4,5-5.3c2.1-1.3,4.4-1.9,7.1-1.9c2.6,0,4.9,0.6,7,1.9
			c2.1,1.3,3.8,3.1,5,5.3c1.2,2.2,1.8,4.7,1.8,7.5C769.9,286.3,769.3,288.8,768.1,291z M766.2,277.1c-1-1.9-2.4-3.4-4.1-4.5
			c-1.8-1.1-3.7-1.7-5.9-1.7c-2.2,0-4.1,0.6-5.9,1.7c-1.8,1.1-3.2,2.6-4.2,4.5c-1,1.9-1.5,4-1.5,6.4c0,2.4,0.5,4.5,1.5,6.4
			s2.4,3.4,4.2,4.5c1.8,1.1,3.7,1.7,5.9,1.7c2.2,0,4.2-0.5,5.9-1.6c1.8-1.1,3.1-2.6,4.1-4.5c1-1.9,1.5-4.1,1.5-6.4
			C767.7,281.2,767.2,279,766.2,277.1z"/>
		<path d="M797.5,271.8c1.7,2,2.5,4.5,2.5,7.6v17.1c0,0.3-0.1,0.6-0.3,0.8s-0.5,0.3-0.8,0.3c-0.3,0-0.6-0.1-0.8-0.3
			c-0.2-0.2-0.3-0.5-0.3-0.8v-16.9c0-2.5-0.7-4.6-2-6.2c-1.3-1.6-3.3-2.4-6-2.4c-1.6,0-3.3,0.4-4.8,1.2c-1.6,0.8-2.9,1.8-3.9,3.2
			c-1,1.3-1.5,2.8-1.5,4.3v16.9c0,0.3-0.1,0.6-0.3,0.8c-0.2,0.2-0.5,0.3-0.8,0.3c-0.3,0-0.6-0.1-0.8-0.3c-0.2-0.2-0.3-0.5-0.3-0.8
			v-25.7c0-0.3,0.1-0.6,0.3-0.8c0.2-0.2,0.5-0.3,0.8-0.3c0.3,0,0.6,0.1,0.8,0.3c0.2,0.2,0.3,0.5,0.3,0.8v3.8
			c1.1-1.7,2.6-3.1,4.6-4.1c2-1.1,3.9-1.6,5.9-1.6C793.3,268.8,795.8,269.8,797.5,271.8z"/>
	</g>
	<g>
		
			<linearGradient id="SVGID_00000182528869548021209770000003808431298029810560_" gradientUnits="userSpaceOnUse" x1="0" y1="-40.7255" x2="215.8937" y2="-40.7255" gradientTransform="matrix(1 0 0 -1 0 74.7106)">
			<stop  offset="0" style="stop-color:#A600F2"/>
			<stop  offset="1" style="stop-color:#263E71"/>
		</linearGradient>
		<path style="fill:url(#SVGID_00000182528869548021209770000003808431298029810560_);" d="M162.4,216.2c32-18.7,53.5-53.4,53.5-93
			c0-1.8-1.4-3.2-3.2-3.2h-44.3c-1.8,0-3.2,1.4-3.2,3.2c0,7.4-1.1,14.3-3.4,20.7l-10.5-9.7c0.5-2.9,0.9-5.9,0.9-9.1
			c0-1.8-1.4-3.2-3.2-3.2h-2.3V95.4c0-0.9,0.7-1.6,1.6-1.6h27.3v3.6c0,4.4,3.5,7.9,7.9,7.9h13.5c4.4,0,7.9-3.5,7.9-7.9V83.8
			c0-4.4-3.6-7.9-7.9-7.9h-13.5c-4.4,0-7.9,3.5-7.9,7.9v3.6h-27.3c-4.4,0-8,3.6-8,8v26.4h-9.8v-59c0-0.9,0.7-1.6,1.6-1.6h11.4
			C145,67.9,151,73,158.2,73c8.3,0,15-6.8,15-15.1s-6.7-15.1-15-15.1c-7.2,0-13.2,5.1-14.7,11.9h-11.4c-4.4,0-8,3.6-8,8v59h-13.1
			V35.6h13.7c1.1,0,2.2-0.6,2.7-1.6c0.6-1,0.6-2.2,0-3.2L110.7,1.6c-0.6-1-1.6-1.6-2.7-1.6l0,0c-1.1,0-2.2,0.6-2.7,1.6L88.4,30.8
			c-0.6,1-0.6,2.2,0,3.2c0.6,1,1.6,1.6,2.7,1.6h13.7v86.2H92.6v-59c0-4.4-3.6-8-8-8H73.3c-1.5-6.8-7.5-11.9-14.7-11.9
			c-8.3,0-15.1,6.8-15.1,15.1S50.3,73,58.6,73c7.2,0,13.2-5.1,14.7-11.9h11.4c0.9,0,1.6,0.7,1.6,1.6v59h-9.8V95.3c0-4.4-3.6-8-8-8
			H40.3v-3.6c0-4.4-3.6-7.9-7.9-7.9H18.8c-4.4,0-7.9,3.5-7.9,7.9v13.6c0,4.4,3.5,7.9,7.9,7.9h13.5c4.4,0,7.9-3.5,7.9-7.9v-3.6h28.2
			c0.9,0,1.6,0.8,1.6,1.6v26.4h-3.2c-1.8,0-3.2,1.4-3.2,3.2c0,28.6,22.2,43.6,44.2,43.6c11.9,0,23.7-4.4,32.2-12.9l12.6,3.9
			c-14.8,17.6-41.3,24.9-64.9,17.4c-3.3-1-6.3-2.3-9.2-3.8l0,0l0,0c-18-9.3-28.1-27-28.1-50.1c0-1.8-1.4-3.2-3.2-3.2H3.2
			c-1.8,0-3.2,1.4-3.2,3.2c0,39.6,21.5,74.3,53.5,93c0.1,0.1,0.1,0.2,0.2,0.2c0.1,0,0.2,0,0.3,0.1c15.9,9.1,34.2,14.4,53.8,14.4
			s38-5.2,53.8-14.4c0.1,0,0.2,0,0.3-0.1C162.2,216.3,162.3,216.1,162.4,216.2L162.4,216.2z M33.9,97.3c0,0.9-0.7,1.6-1.6,1.6H18.8
			c-0.8,0-1.6-0.7-1.6-1.6V83.8c0-0.9,0.7-1.6,1.6-1.6h13.5c0.9,0,1.6,0.7,1.6,1.6V97.3z M67.2,58c0,4.8-3.9,8.7-8.7,8.7
			s-8.7-3.9-8.7-8.7s3.9-8.7,8.7-8.7C63.3,49.3,67.2,53.2,67.2,58z M119.3,29.3H96.5l11.4-19.7L119.3,29.3z M149.5,58
			c0-4.8,3.9-8.7,8.7-8.7s8.7,3.9,8.7,8.7s-3.9,8.7-8.7,8.7C153.4,66.7,149.5,62.8,149.5,58z M181.9,83.8c0-0.9,0.7-1.6,1.6-1.6H197
			c0.9,0,1.6,0.7,1.6,1.6v13.6c0,0.9-0.7,1.6-1.6,1.6h-13.5c-0.9,0-1.6-0.7-1.6-1.6V83.8z M44.3,126.3c0.9,22.5,11.1,40.6,28.4,50.9
			l-18.5,32c-27.9-17.4-46.8-47.9-47.9-82.9L44.3,126.3L44.3,126.3z M137,179.4l19.1,33c-14.4,7.8-30.8,12.2-48.2,12.2
			s-33.8-4.4-48.2-12.2l18.7-32.3c2.4,1.1,4.9,2.1,7.6,3C103.1,188.5,121.7,186.8,137,179.4z M107.9,162.2
			c-17.5,0-36.2-10.7-37.7-34.1h75.5c-0.7,10.1-4.7,18.6-11.6,24.7C127.2,158.9,117.9,162.2,107.9,162.2L107.9,162.2z M149.4,141
			l17.9,16.5l-22.7-7.1C146.5,147.6,148.1,144.4,149.4,141z M209.5,126.3c-1.1,35-20,65.5-47.9,82.9l-19-32.8
			c6.4-3.9,12.1-8.9,16.6-14.8l19.6,6.1c1.4,0.4,3-0.1,3.7-1.4c0.8-1.3,0.5-2.9-0.6-3.9l-15.1-13.9c2.8-6.8,4.4-14.2,4.7-22.1H209.5
			z"/>
	</g>
</g>
</svg>
